<svg width="8" height="5" viewBox="0 0 8 5" fill="none" xmlns="http://www.w3.org/2000/svg">
<path d="M4 1.5C3.71067 1.5 3.4332 1.60536 3.22861 1.79289C3.02403 1.98043 2.90909 2.23478 2.90909 2.5C2.90909 2.76522 3.02403 3.01957 3.22861 3.20711C3.4332 3.39464 3.71067 3.5 4 3.5C4.28933 3.5 4.5668 3.39464 4.77139 3.20711C4.97597 3.01957 5.09091 2.76522 5.09091 2.5C5.09091 2.23478 4.97597 1.98043 4.77139 1.79289C4.5668 1.60536 4.28933 1.5 4 1.5ZM4 4.16667C3.51779 4.16667 3.05533 3.99107 2.71435 3.67851C2.37338 3.36595 2.18182 2.94203 2.18182 2.5C2.18182 2.05797 2.37338 1.63405 2.71435 1.32149C3.05533 1.00893 3.51779 0.833333 4 0.833333C4.48221 0.833333 4.94467 1.00893 5.28565 1.32149C5.62662 1.63405 5.81818 2.05797 5.81818 2.5C5.81818 2.94203 5.62662 3.36595 5.28565 3.67851C4.94467 3.99107 4.48221 4.16667 4 4.16667ZM4 0C2.18182 0 0.629091 1.03667 0 2.5C0.629091 3.96333 2.18182 5 4 5C5.81818 5 7.37091 3.96333 8 2.5C7.37091 1.03667 5.81818 0 4 0Z" fill="#1D86C8"/>
</svg>
