<svg width="65" height="18" viewBox="0 0 65 18" fill="none" xmlns="http://www.w3.org/2000/svg">
<path d="M28.2061 12.5972C28.1858 12.658 28.1353 12.7189 28.0544 12.7797C27.9802 12.8405 27.8824 12.8709 27.7611 12.8709H26.3451C26.217 12.8709 26.1091 12.8338 26.0215 12.7594C25.9406 12.6783 25.8934 12.5871 25.8799 12.4857L25 6.02763V5.99721C25 5.93638 25.0202 5.88569 25.0607 5.84514C25.1079 5.79783 25.1618 5.77417 25.2225 5.77417H26.9621C27.0969 5.77417 27.2048 5.81472 27.2857 5.89583C27.3734 5.97693 27.4239 6.07832 27.4374 6.19998L27.7611 9.30228L28.3477 7.6903C28.3679 7.62271 28.4151 7.5585 28.4893 7.49767C28.5702 7.43008 28.6713 7.39629 28.7927 7.39629H29.4804C29.6018 7.39629 29.6995 7.43008 29.7737 7.49767C29.8546 7.5585 29.9052 7.62271 29.9254 7.6903L30.512 9.30228L30.8357 6.19998C30.8491 6.07832 30.8963 5.97693 30.9772 5.89583C31.0649 5.81472 31.1761 5.77417 31.311 5.77417H33.0506C33.1113 5.77417 33.1618 5.79783 33.2023 5.84514C33.2495 5.88569 33.2731 5.93638 33.2731 5.99721V6.02763L32.3932 12.4857C32.3797 12.5871 32.3291 12.6783 32.2415 12.7594C32.1606 12.8338 32.056 12.8709 31.9279 12.8709H30.512C30.3906 12.8709 30.2895 12.8405 30.2086 12.7797C30.1344 12.7189 30.0872 12.658 30.067 12.5972L29.1365 10.458L28.2061 12.5972Z" fill="#BEBEBE"/>
<path d="M36.2325 12.5262C36.1448 12.756 35.9931 12.8709 35.7773 12.8709H33.8658C33.8052 12.8709 33.7512 12.8507 33.704 12.8101C33.6636 12.7628 33.6433 12.7087 33.6433 12.6479L33.6534 12.5871L35.8582 6.10873C35.8852 6.02087 35.9358 5.94314 36.01 5.87555C36.0841 5.80796 36.1853 5.77417 36.3134 5.77417H39.125C39.2531 5.77417 39.3542 5.80796 39.4284 5.87555C39.5026 5.94314 39.5532 6.02087 39.5801 6.10873L41.7849 12.5871L41.795 12.6479C41.795 12.7087 41.7714 12.7628 41.7242 12.8101C41.6838 12.8507 41.6332 12.8709 41.5725 12.8709H39.661C39.4453 12.8709 39.2936 12.756 39.2059 12.5262L38.9531 11.8166H36.4853L36.2325 12.5262ZM37.7192 7.73085L37.0011 9.83961H38.4373L37.7192 7.73085Z" fill="#BEBEBE"/>
<path d="M49.7709 5.77417C49.845 5.77417 49.9091 5.80121 49.963 5.85528C50.017 5.90935 50.0439 5.97356 50.0439 6.0479V7.68016C50.0439 7.75451 50.017 7.81872 49.963 7.87279C49.9091 7.92686 49.845 7.95389 49.7709 7.95389H47.5964V12.5972C47.5964 12.6716 47.5694 12.7358 47.5155 12.7898C47.4615 12.8439 47.3975 12.8709 47.3233 12.8709H45.2399C45.1657 12.8709 45.1017 12.8439 45.0477 12.7898C44.9938 12.7358 44.9668 12.6716 44.9668 12.5972V7.95389H42.7924C42.7182 7.95389 42.6541 7.92686 42.6002 7.87279C42.5462 7.81872 42.5193 7.75451 42.5193 7.68016V6.0479C42.5193 5.97356 42.5462 5.90935 42.6002 5.85528C42.6541 5.80121 42.7182 5.77417 42.7924 5.77417H49.7709Z" fill="#BEBEBE"/>
<path d="M64.9798 12.5567C64.9933 12.5837 65 12.6141 65 12.6479C65 12.7087 64.9764 12.7628 64.9292 12.8101C64.8887 12.8507 64.8382 12.8709 64.7775 12.8709H62.4817C62.3873 12.8709 62.2996 12.8473 62.2187 12.8C62.1445 12.7527 62.0906 12.6918 62.0569 12.6175L61.1669 10.6101H60.3173V12.5972C60.3173 12.6716 60.2904 12.7358 60.2364 12.7898C60.1825 12.8439 60.1184 12.8709 60.0442 12.8709H57.8597C57.7855 12.8709 57.7215 12.8439 57.6675 12.7898C57.6136 12.7358 57.5866 12.6716 57.5866 12.5972V6.0479C57.5866 5.97356 57.6136 5.90935 57.6675 5.85528C57.7215 5.80121 57.7855 5.77417 57.8597 5.77417H61.7939C62.4008 5.77417 62.93 5.87217 63.3818 6.06818C63.8403 6.26419 64.1909 6.54806 64.4336 6.91979C64.6764 7.29153 64.7977 7.72747 64.7977 8.22763C64.7977 9.14683 64.4437 9.81257 63.7358 10.2249L64.9798 12.5567ZM61.5815 8.73454C61.7299 8.73454 61.8445 8.68723 61.9254 8.5926C62.0063 8.49122 62.0468 8.36618 62.0468 8.21749C62.0468 8.06879 62.0063 7.94038 61.9254 7.83223C61.8512 7.71733 61.7366 7.65988 61.5815 7.65988H60.3173V8.73454H61.5815Z" fill="#BEBEBE"/>
<path d="M53.9517 8.51613C53.5453 8.51613 53.1556 8.34569 52.8682 8.04231C52.5809 7.73893 52.4194 7.32746 52.4194 6.89841C52.4194 5.81993 53.9517 4 53.9517 4C53.9517 4 55.4839 5.81993 55.4839 6.89841C55.4839 7.32746 55.3225 7.73893 55.0352 8.04231C54.7478 8.34569 54.3581 8.51613 53.9517 8.51613Z" fill="#BEBEBE"/>
<rect width="18" height="18" rx="3" fill="#1D86C8"/>
<path d="M9 13C8.20435 13 7.44129 12.6981 6.87868 12.1607C6.31607 11.6232 6 10.8944 6 10.1343C6 8.22388 9 5 9 5C9 5 12 8.22388 12 10.1343C12 10.8944 11.6839 11.6232 11.1213 12.1607C10.5587 12.6981 9.79565 13 9 13Z" fill="white"/>
</svg>
