<svg width="119" height="27" viewBox="0 0 119 27" fill="none" xmlns="http://www.w3.org/2000/svg">
<path d="M9.46956 25.3931C9.40981 25.5728 9.26045 25.7524 9.02147 25.9321C8.80241 26.1118 8.51364 26.2016 8.15517 26.2016H3.97303C3.59465 26.2016 3.27601 26.0918 3.01712 25.8722C2.77814 25.6327 2.63873 25.3632 2.5989 25.0637L0 5.98894V5.8991C0 5.71943 0.0597448 5.56971 0.179235 5.44993C0.318639 5.31019 0.477959 5.24032 0.657193 5.24032H5.79525C6.19355 5.24032 6.51219 5.3601 6.75117 5.59966C7.01006 5.83921 7.15943 6.13866 7.19925 6.498L8.15517 15.6611L9.88777 10.8999C9.94752 10.7002 10.0869 10.5106 10.306 10.3309C10.545 10.1313 10.8437 10.0315 11.2022 10.0315H13.2335C13.592 10.0315 13.8807 10.1313 14.0998 10.3309C14.3388 10.5106 14.4881 10.7002 14.5479 10.8999L16.2805 15.6611L17.2364 6.498C17.2762 6.13866 17.4156 5.83921 17.6546 5.59966C17.9135 5.3601 18.2421 5.24032 18.6404 5.24032H23.7785C23.9577 5.24032 24.107 5.31019 24.2265 5.44993C24.3659 5.56971 24.4356 5.71943 24.4356 5.8991V5.98894L21.8367 25.0637C21.7969 25.3632 21.6476 25.6327 21.3887 25.8722C21.1497 26.0918 20.841 26.2016 20.4626 26.2016H16.2805C15.922 26.2016 15.6233 26.1118 15.3843 25.9321C15.1652 25.7524 15.0258 25.5728 14.9661 25.3931L12.2178 19.0748L9.46956 25.3931Z" fill="white"/>
<path d="M33.1766 25.1835C32.9177 25.8622 32.4696 26.2016 31.8323 26.2016H26.1865C26.0072 26.2016 25.8479 26.1417 25.7085 26.0219C25.589 25.8822 25.5293 25.7225 25.5293 25.5428L25.5591 25.3632L32.0713 6.22849C32.151 5.96897 32.3003 5.7394 32.5194 5.53976C32.7385 5.34013 33.0372 5.24032 33.4156 5.24032H41.7201C42.0985 5.24032 42.3972 5.34013 42.6163 5.53976C42.8354 5.7394 42.9847 5.96897 43.0644 6.22849L49.5766 25.3632L49.6064 25.5428C49.6064 25.7225 49.5367 25.8822 49.3973 26.0219C49.2778 26.1417 49.1285 26.2016 48.9492 26.2016H43.3033C42.6661 26.2016 42.218 25.8622 41.9591 25.1835L41.2123 23.0874H33.9234L33.1766 25.1835ZM37.5678 11.0196L35.4469 17.2481H39.6888L37.5678 11.0196Z" fill="white"/>
<path d="M73.1641 5.24032C73.3832 5.24032 73.5724 5.32017 73.7317 5.47988C73.891 5.63958 73.9707 5.82923 73.9707 6.04883V10.8699C73.9707 11.0895 73.891 11.2792 73.7317 11.4389C73.5724 11.5986 73.3832 11.6784 73.1641 11.6784H66.7415V25.3931C66.7415 25.6127 66.6619 25.8023 66.5026 25.962C66.3432 26.1218 66.154 26.2016 65.935 26.2016H59.7813C59.5622 26.2016 59.373 26.1218 59.2137 25.962C59.0544 25.8023 58.9747 25.6127 58.9747 25.3931V11.6784H52.5521C52.3331 11.6784 52.1439 11.5986 51.9846 11.4389C51.8252 11.2792 51.7456 11.0895 51.7456 10.8699V6.04883C51.7456 5.82923 51.8252 5.63958 51.9846 5.47988C52.1439 5.32017 52.3331 5.24032 52.5521 5.24032H73.1641Z" fill="white"/>
<path d="M118.086 25.2733C118.126 25.3532 118.145 25.443 118.145 25.5428C118.145 25.7225 118.076 25.8822 117.936 26.0219C117.817 26.1417 117.667 26.2016 117.488 26.2016H110.707C110.428 26.2016 110.17 26.1317 109.931 25.992C109.711 25.8523 109.552 25.6726 109.453 25.453L106.824 19.5239H104.315V25.3931C104.315 25.6127 104.235 25.8023 104.076 25.962C103.916 26.1218 103.727 26.2016 103.508 26.2016H97.0555C96.8364 26.2016 96.6473 26.1218 96.4879 25.962C96.3286 25.8023 96.249 25.6127 96.249 25.3931V6.04883C96.249 5.82923 96.3286 5.63958 96.4879 5.47988C96.6473 5.32017 96.8364 5.24032 97.0555 5.24032H108.676C110.468 5.24032 112.032 5.52978 113.366 6.10872C114.72 6.68765 115.756 7.5261 116.473 8.62407C117.19 9.72204 117.548 11.0097 117.548 12.4869C117.548 15.2019 116.502 17.1683 114.411 18.386L118.086 25.2733ZM108.049 13.9842C108.487 13.9842 108.825 13.8444 109.064 13.5649C109.303 13.2655 109.423 12.8962 109.423 12.457C109.423 12.0178 109.303 11.6385 109.064 11.3191C108.845 10.9797 108.507 10.81 108.049 10.81H104.315V13.9842H108.049Z" fill="white"/>
<path d="M85.5125 13.339C84.3123 13.339 83.1611 12.8356 82.3124 11.9395C81.4636 11.0434 80.9868 9.8281 80.9868 8.56085C80.9868 5.37542 85.5125 0 85.5125 0C85.5125 0 90.0383 5.37542 90.0383 8.56085C90.0383 9.8281 89.5615 11.0434 88.7127 11.9395C87.864 12.8356 86.7128 13.339 85.5125 13.339Z" fill="white"/>
</svg>
