<svg width="22" height="22" viewBox="0 0 22 22" fill="none" xmlns="http://www.w3.org/2000/svg">
<path d="M20.887 10.9234L11.3653 0.33512C10.9644 -0.111707 10.1942 -0.111707 9.79319 0.33512L0.271503 10.9234C0.134687 11.0756 0.0448834 11.2642 0.0129628 11.4664C-0.0189579 11.6686 0.00837359 11.8758 0.0916486 12.0627C0.260923 12.445 0.639675 12.6906 1.05757 12.6906H3.1735V20.1025C3.1735 20.3833 3.28497 20.6526 3.48337 20.8512C3.68178 21.0497 3.95088 21.1613 4.23147 21.1613H7.40536C7.68595 21.1613 7.95505 21.0497 8.15346 20.8512C8.35186 20.6526 8.46333 20.3833 8.46333 20.1025V15.8671H12.6952V20.1025C12.6952 20.3833 12.8067 20.6526 13.0051 20.8512C13.2035 21.0497 13.4726 21.1613 13.7532 21.1613H16.927C17.2076 21.1613 17.4767 21.0497 17.6751 20.8512C17.8736 20.6526 17.985 20.3833 17.985 20.1025V12.6906H20.1009C20.3058 12.6915 20.5066 12.6327 20.6786 12.5214C20.8507 12.4101 20.9867 12.251 21.07 12.0637C21.1534 11.8764 21.1804 11.6688 21.1479 11.4663C21.1154 11.2639 21.0248 11.0752 20.887 10.9234Z" fill="#BEBEBE"/>
</svg>
