<svg width="23" height="21" viewBox="0 0 23 21" fill="none" xmlns="http://www.w3.org/2000/svg">
<path d="M7.4792 4.08333C7.4792 3.5471 7.58326 3.01612 7.78544 2.52071C7.98762 2.0253 8.28396 1.57515 8.65754 1.19598C9.03112 0.816808 9.47462 0.516032 9.96272 0.310825C10.4508 0.105618 10.974 0 11.5023 0C12.0306 0 12.5538 0.105618 13.0419 0.310825C13.53 0.516032 13.9735 0.816808 14.3471 1.19598C14.7206 1.57515 15.017 2.0253 15.2192 2.52071C15.4213 3.01612 15.5254 3.5471 15.5254 4.08333C15.5254 5.1663 15.1015 6.20491 14.3471 6.97069C13.5926 7.73646 12.5693 8.16667 11.5023 8.16667C10.4353 8.16667 9.41201 7.73646 8.65754 6.97069C7.90306 6.20491 7.4792 5.1663 7.4792 4.08333ZM2.88136 9.33333C3.6435 9.33333 4.37442 9.02604 4.91334 8.47906C5.45225 7.93208 5.75501 7.19021 5.75501 6.41667C5.75501 5.64312 5.45225 4.90125 4.91334 4.35427C4.37442 3.80729 3.6435 3.5 2.88136 3.5C2.11922 3.5 1.3883 3.80729 0.849386 4.35427C0.310473 4.90125 0.00771432 5.64312 0.00771432 6.41667C0.00771432 7.19021 0.310473 7.93208 0.849386 8.47906C1.3883 9.02604 2.11922 9.33333 2.88136 9.33333ZM22.9969 6.41667C22.9969 7.19021 22.6941 7.93208 22.1552 8.47906C21.6163 9.02604 20.8854 9.33333 20.1232 9.33333C19.3611 9.33333 18.6302 9.02604 18.0913 8.47906C17.5524 7.93208 17.2496 7.19021 17.2496 6.41667C17.2496 5.64312 17.5524 4.90125 18.0913 4.35427C18.6302 3.80729 19.3611 3.5 20.1232 3.5C20.8854 3.5 21.6163 3.80729 22.1552 4.35427C22.6941 4.90125 22.9969 5.64312 22.9969 6.41667ZM9.77811 10.5C8.19186 10.5 6.90447 11.8067 6.90447 13.4167V16.3333C6.90447 17.571 7.38888 18.758 8.25114 19.6332C9.1134 20.5083 10.2829 21 11.5023 21C12.7217 21 13.8912 20.5083 14.7535 19.6332C15.6157 18.758 16.1001 17.571 16.1001 16.3333V13.4167C16.1001 11.8067 14.8127 10.5 13.2265 10.5H9.77811ZM4.60555 13.4167C4.60555 12.7423 4.72969 12.0983 4.95958 11.508L2.12961 12.278C1.39387 12.4782 0.766534 12.9666 0.385464 13.6361C0.00439357 14.3055 -0.0992276 15.1011 0.0973722 15.848L0.543362 17.5397C0.699681 18.1317 0.969377 18.6867 1.33705 19.1729C1.70472 19.6592 2.16316 20.0671 2.68619 20.3735C3.20922 20.6799 3.78659 20.8787 4.38533 20.9585C4.98406 21.0384 5.59244 20.9978 6.17571 20.839L6.21479 20.8273C5.17529 19.5675 4.60562 17.9766 4.60555 16.3333V13.4167ZM18.3991 16.3333C18.3991 18.0437 17.7944 19.6117 16.7898 20.8297L16.8266 20.839C18.0042 21.159 19.2589 20.9912 20.3147 20.3725C21.3705 19.7538 22.1409 18.7348 22.4566 17.5397L22.9026 15.848C23.0992 15.1011 22.9956 14.3055 22.6145 13.6361C22.2335 12.9666 21.6061 12.4782 20.8704 12.278L18.0473 11.508C18.2749 12.1007 18.3991 12.7447 18.3991 13.4167V16.3333Z" fill="#1D86C8"/>
</svg>
