<svg width="76" height="68" viewBox="0 0 76 68" fill="none" xmlns="http://www.w3.org/2000/svg">
<path d="M30.875 43.7144C31.3447 43.7144 31.8039 43.8569 32.1945 44.1237C32.585 44.3906 32.8895 44.7699 33.0692 45.2136C33.249 45.6574 33.296 46.1457 33.2044 46.6168C33.1127 47.0879 32.8865 47.5206 32.5544 47.8603C32.2222 48.1999 31.799 48.4312 31.3383 48.5249C30.8776 48.6186 30.4001 48.5705 29.9661 48.3867C29.5322 48.2029 29.1612 47.8916 28.9003 47.4922C28.6393 47.0929 28.5 46.6233 28.5 46.143C28.5 45.4989 28.7502 44.8812 29.1956 44.4258C29.641 43.9703 30.2451 43.7144 30.875 43.7144ZM26.125 29.1431C26.5947 29.1431 27.0539 29.2856 27.4445 29.5524C27.835 29.8193 28.1395 30.1985 28.3192 30.6423C28.499 31.0861 28.546 31.5744 28.4544 32.0455C28.3627 32.5166 28.1365 32.9493 27.8044 33.2889C27.4722 33.6286 27.049 33.8599 26.5883 33.9536C26.1276 34.0473 25.6501 33.9992 25.2161 33.8154C24.7822 33.6316 24.4112 33.3203 24.1503 32.9209C23.8893 32.5215 23.75 32.052 23.75 31.5717C23.75 30.9276 24.0002 30.3099 24.4456 29.8544C24.891 29.399 25.4951 29.1431 26.125 29.1431ZM21.375 38.8573C20.9053 38.8573 20.4461 38.7149 20.0555 38.4481C19.665 38.1812 19.3605 37.8019 19.1808 37.3582C19.001 36.9144 18.954 36.4261 19.0456 35.955C19.1373 35.4839 19.3635 35.0512 19.6956 34.7115C20.0278 34.3719 20.451 34.1406 20.9117 34.0469C21.3724 33.9532 21.8499 34.0013 22.2839 34.1851C22.7178 34.3689 23.0888 34.6802 23.3497 35.0796C23.6107 35.4789 23.75 35.9485 23.75 36.4288C23.75 37.0729 23.4998 37.6906 23.0544 38.146C22.609 38.6015 22.0049 38.8573 21.375 38.8573ZM26.125 43.7144C25.6553 43.7144 25.1961 43.572 24.8055 43.3052C24.415 43.0383 24.1105 42.659 23.9308 42.2153C23.751 41.7715 23.704 41.2832 23.7956 40.8121C23.8873 40.341 24.1135 39.9083 24.4456 39.5686C24.7778 39.229 25.201 38.9977 25.6617 38.904C26.1224 38.8103 26.5999 38.8584 27.0339 39.0422C27.4678 39.226 27.8388 39.5373 28.0997 39.9367C28.3607 40.336 28.5 40.8056 28.5 41.2859C28.5 41.93 28.2498 42.5477 27.8044 43.0031C27.359 43.4586 26.7549 43.7144 26.125 43.7144ZM30.875 34.0002C31.3447 34.0002 31.8039 34.1427 32.1945 34.4095C32.585 34.6764 32.8895 35.0557 33.0692 35.4994C33.249 35.9432 33.296 36.4315 33.2044 36.9026C33.1127 37.3737 32.8865 37.8064 32.5544 38.146C32.2222 38.4857 31.799 38.717 31.3383 38.8107C30.8776 38.9044 30.4001 38.8563 29.9661 38.6725C29.5322 38.4887 29.1612 38.1774 28.9003 37.778C28.6393 37.3786 28.5 36.9091 28.5 36.4288C28.5 35.7847 28.7502 35.167 29.1956 34.7115C29.641 34.2561 30.2451 34.0002 30.875 34.0002ZM11.875 29.1431C11.4053 29.1431 10.9461 29.0007 10.5555 28.7338C10.165 28.467 9.86054 28.0877 9.68079 27.6439C9.50103 27.2002 9.45399 26.7119 9.54563 26.2408C9.63728 25.7697 9.86347 25.337 10.1956 24.9973C10.5278 24.6577 10.951 24.4264 11.4117 24.3327C11.8724 24.239 12.3499 24.2871 12.7839 24.4709C13.2178 24.6547 13.5888 24.966 13.8497 25.3653C14.1107 25.7647 14.25 26.2342 14.25 26.7146C14.25 27.3587 13.9998 27.9764 13.5544 28.4318C13.109 28.8873 12.5049 29.1431 11.875 29.1431ZM19 31.5717C19 32.052 18.8607 32.5215 18.5997 32.9209C18.3388 33.3203 17.9678 33.6316 17.5339 33.8154C17.0999 33.9992 16.6224 34.0473 16.1617 33.9536C15.701 33.8599 15.2778 33.6286 14.9456 33.2889C14.6135 32.9493 14.3873 32.5166 14.2956 32.0455C14.204 31.5744 14.251 31.0861 14.4308 30.6423C14.6105 30.1985 14.915 29.8193 15.3055 29.5524C15.6961 29.2856 16.1553 29.1431 16.625 29.1431C17.2549 29.1431 17.859 29.399 18.3044 29.8544C18.7498 30.3099 19 30.9276 19 31.5717ZM21.375 24.286C21.8447 24.286 22.3039 24.4284 22.6945 24.6953C23.085 24.9621 23.3895 25.3414 23.5692 25.7852C23.749 26.229 23.796 26.7173 23.7044 27.1884C23.6127 27.6594 23.3865 28.0922 23.0544 28.4318C22.7222 28.7715 22.299 29.0028 21.8383 29.0965C21.3776 29.1902 20.9001 29.1421 20.4661 28.9583C20.0322 28.7744 19.6612 28.4632 19.4003 28.0638C19.1393 27.6644 19 27.1949 19 26.7146C19 26.0705 19.2502 25.4528 19.6956 24.9973C20.141 24.5419 20.7451 24.286 21.375 24.286ZM7.125 29.1431C7.59473 29.1431 8.05392 29.2856 8.44448 29.5524C8.83504 29.8193 9.13946 30.1985 9.31921 30.6423C9.49897 31.0861 9.54601 31.5744 9.45437 32.0455C9.36272 32.5166 9.13653 32.9493 8.80438 33.2889C8.47223 33.6286 8.04905 33.8599 7.58834 33.9536C7.12764 34.0473 6.6501 33.9992 6.21613 33.8154C5.78215 33.6316 5.41122 33.3203 5.15026 32.9209C4.88929 32.5215 4.75 32.052 4.75 31.5717C4.75 30.9276 5.00022 30.3099 5.44562 29.8544C5.89102 29.399 6.49511 29.1431 7.125 29.1431ZM2.375 24.286C2.84473 24.286 3.30392 24.4284 3.69448 24.6953C4.08504 24.9621 4.38946 25.3414 4.56921 25.7852C4.74897 26.229 4.79601 26.7173 4.70437 27.1884C4.61272 27.6594 4.38653 28.0922 4.05438 28.4318C3.72223 28.7715 3.29905 29.0028 2.83834 29.0965C2.37764 29.1902 1.9001 29.1421 1.46613 28.9583C1.03215 28.7744 0.661224 28.4632 0.400261 28.0638C0.13929 27.6644 0 27.1949 0 26.7146C0 26.0705 0.250221 25.4528 0.695618 24.9973C1.14102 24.5419 1.74511 24.286 2.375 24.286ZM11.875 34.0002C12.3447 34.0002 12.8039 34.1427 13.1945 34.4095C13.585 34.6764 13.8895 35.0557 14.0692 35.4994C14.249 35.9432 14.296 36.4315 14.2044 36.9026C14.1127 37.3737 13.8865 37.8064 13.5544 38.146C13.2222 38.4857 12.799 38.717 12.3383 38.8107C11.8776 38.9044 11.4001 38.8563 10.9661 38.6725C10.5322 38.4887 10.1612 38.1774 9.90026 37.778C9.63929 37.3786 9.5 36.9091 9.5 36.4288C9.5 35.7847 9.75022 35.167 10.1956 34.7115C10.641 34.2561 11.2451 34.0002 11.875 34.0002ZM16.625 38.8573C17.0947 38.8573 17.5539 38.9998 17.9445 39.2666C18.335 39.5335 18.6395 39.9128 18.8192 40.3565C18.999 40.8003 19.046 41.2886 18.9544 41.7597C18.8627 42.2308 18.6365 42.6635 18.3044 43.0031C17.9722 43.3428 17.549 43.5741 17.0883 43.6678C16.6276 43.7615 16.1501 43.7134 15.7161 43.5296C15.2822 43.3458 14.9112 43.0345 14.6503 42.6351C14.3893 42.2358 14.25 41.7662 14.25 41.2859C14.25 40.6418 14.5002 40.0241 14.9456 39.5686C15.391 39.1132 15.9951 38.8573 16.625 38.8573ZM26.125 48.5716C26.5947 48.5716 27.0539 48.714 27.4445 48.9808C27.835 49.2477 28.1395 49.627 28.3192 50.0707C28.499 50.5145 28.546 51.0028 28.4544 51.4739C28.3627 51.945 28.1365 52.3777 27.8044 52.7174C27.4722 53.057 27.049 53.2883 26.5883 53.382C26.1276 53.4757 25.6501 53.4276 25.2161 53.2438C24.7822 53.06 24.4112 52.7487 24.1503 52.3493C23.8893 51.95 23.75 51.4804 23.75 51.0001C23.75 50.356 24.0002 49.7383 24.4456 49.2829C24.891 48.8274 25.4951 48.5716 26.125 48.5716ZM30.875 53.4287C31.3447 53.4287 31.8039 53.5711 32.1945 53.838C32.585 54.1048 32.8895 54.4841 33.0692 54.9279C33.249 55.3716 33.296 55.8599 33.2044 56.331C33.1127 56.8021 32.8865 57.2348 32.5544 57.5745C32.2222 57.9141 31.799 58.1454 31.3383 58.2391C30.8776 58.3328 30.4001 58.2847 29.9661 58.1009C29.5322 57.9171 29.1612 57.6058 28.9003 57.2065C28.6393 56.8071 28.5 56.3375 28.5 55.8572C28.5 55.2131 28.7502 54.5954 29.1956 54.14C29.641 53.6845 30.2451 53.4287 30.875 53.4287ZM21.375 43.7144C21.8447 43.7144 22.3039 43.8569 22.6945 44.1237C23.085 44.3906 23.3895 44.7699 23.5692 45.2136C23.749 45.6574 23.796 46.1457 23.7044 46.6168C23.6127 47.0879 23.3865 47.5206 23.0544 47.8603C22.7222 48.1999 22.299 48.4312 21.8383 48.5249C21.3776 48.6186 20.9001 48.5705 20.4661 48.3867C20.0322 48.2029 19.6612 47.8916 19.4003 47.4922C19.1393 47.0929 19 46.6233 19 46.143C19 45.4989 19.2502 44.8812 19.6956 44.4258C20.141 43.9703 20.7451 43.7144 21.375 43.7144ZM18.1613 10.5723L19.8387 8.85558C20.0592 8.63001 20.3211 8.45107 20.6092 8.32899C20.8974 8.20691 21.2063 8.14408 21.5182 8.14408C21.8302 8.14408 22.1391 8.20691 22.4272 8.32899C22.7154 8.45107 22.9773 8.63001 23.1978 8.85558L24.0395 9.71468C27.1276 6.60254 31.2892 4.85783 35.625 4.85757C38.4809 4.85757 41.1291 5.66203 43.4773 6.95979L44.9617 5.44194C48.3304 1.98125 52.9018 0.0248956 57.6769 0.000460249C67.7632 -0.0754321 76 9.24567 76 19.5579V65.5714C76 66.2155 75.7498 66.8333 75.3044 67.2887C74.859 67.7441 74.2549 68 73.625 68H68.875C68.2451 68 67.641 67.7441 67.1956 67.2887C66.7502 66.8333 66.5 66.2155 66.5 65.5714V19.186C66.5 14.6097 63.3828 10.3522 58.9297 9.78602C57.6103 9.60927 56.2689 9.74557 55.0094 10.1844C53.7498 10.6231 52.606 11.3526 51.6666 12.3163L50.1823 13.8341C51.4633 16.2293 52.25 18.9371 52.25 21.8575C52.2493 26.291 50.5431 30.5462 47.5 33.7043L48.3402 34.5649C48.7852 35.0203 49.0352 35.6377 49.0352 36.2816C49.0352 36.9254 48.7852 37.5428 48.3402 37.9982L46.6628 39.7149C46.4423 39.9405 46.1804 40.1194 45.8922 40.2415C45.6041 40.3636 45.2952 40.4264 44.9832 40.4264C44.6713 40.4264 44.3624 40.3636 44.0742 40.2415C43.7861 40.1194 43.5242 39.9405 43.3037 39.7149L18.1613 14.0072C17.9407 13.7816 17.7657 13.5139 17.6464 13.2192C17.527 12.9245 17.4655 12.6087 17.4655 12.2897C17.4655 11.9707 17.527 11.6549 17.6464 11.3602C17.7657 11.0655 17.9407 10.7978 18.1613 10.5723Z" fill="#CDCDCD"/>
</svg>
