<svg width="393" height="164" viewBox="0 0 393 164" fill="none" xmlns="http://www.w3.org/2000/svg">
<path d="M-5.00001 149.138C1.71039 129.685 17.5221 87.6567 27.0858 75.1681C39.0405 59.5573 45.7902 106.803 57.9272 85.6959C70.0643 64.5886 76.4727 43.7915 100.061 53.5784C123.649 63.3654 134.759 26.2166 152.044 22.288C169.329 18.3595 177.212 47.1344 181.338 63.7791C185.464 80.4237 202.004 98.9809 210.362 97.7576C218.72 96.5342 222.305 98.1539 253.192 44.6534C284.078 -8.84714 319.298 11.0429 328.597 28.1468C337.178 43.929 334.137 64.8477 351.815 80.4413C369.492 96.0349 396.29 87.4197 401.146 82.0783C405.03 77.8051 417.367 68.4432 423.049 64.2964" stroke="#14B4D3" stroke-width="3"/>
<circle cx="181" cy="64" r="9" fill="#1D86C8"/>
<circle cx="181" cy="64" r="5" fill="white"/>
<g filter="url(#filter0_d_344_26)">
<rect x="159" y="78" width="44" height="24" rx="4" fill="white"/>
</g>
<path d="M172.03 95.1293C171.639 95.1262 171.258 95.0477 170.885 94.8938C170.513 94.7369 170.177 94.486 169.879 94.1413C169.58 93.7936 169.343 93.335 169.168 92.7656C168.993 92.1963 168.905 91.4961 168.905 90.6651C168.905 89.8957 168.973 89.1909 169.108 88.5508C169.243 87.9106 169.446 87.3567 169.717 86.8888C169.988 86.421 170.327 86.0594 170.733 85.804C171.139 85.5455 171.615 85.4162 172.159 85.4162C172.67 85.4162 173.121 85.5224 173.512 85.7347C173.903 85.944 174.22 86.2364 174.463 86.6119C174.706 86.9873 174.859 87.4197 174.92 87.9091H174.071C173.984 87.4105 173.78 86.9996 173.457 86.6765C173.134 86.3533 172.701 86.1918 172.159 86.1918C171.384 86.1918 170.784 86.5518 170.359 87.272C169.934 87.9891 169.72 89.0078 169.717 90.3281H169.777C169.928 90.0481 170.122 89.8065 170.359 89.6033C170.599 89.3971 170.871 89.2371 171.176 89.1232C171.481 89.0063 171.801 88.9478 172.136 88.9478C172.663 88.9478 173.144 89.0817 173.581 89.3494C174.018 89.6141 174.368 89.9788 174.629 90.4435C174.891 90.9052 175.022 91.433 175.022 92.027C175.022 92.5902 174.897 93.1088 174.648 93.5827C174.402 94.0567 174.054 94.4337 173.604 94.7138C173.158 94.9938 172.633 95.1323 172.03 95.1293ZM172.03 94.3537C172.443 94.3537 172.81 94.2491 173.134 94.0398C173.46 93.8305 173.717 93.5504 173.904 93.1996C174.092 92.8456 174.186 92.4548 174.186 92.027C174.186 91.5992 174.092 91.2114 173.904 90.8636C173.717 90.5159 173.46 90.2389 173.134 90.0327C172.81 89.8265 172.443 89.7234 172.03 89.7234C171.716 89.7234 171.424 89.788 171.153 89.9173C170.882 90.0434 170.647 90.2173 170.447 90.4389C170.25 90.6574 170.099 90.9083 169.994 91.1914C169.893 91.4746 169.854 91.7715 169.879 92.0824C169.913 92.5163 170.025 92.9057 170.216 93.2504C170.41 93.592 170.662 93.8613 170.973 94.0582C171.287 94.2552 171.639 94.3537 172.03 94.3537ZM177.247 95L181.554 86.381V86.321H176.591V85.5455H182.459V86.358L178.156 95H177.247ZM188.81 85.5455V95H187.988V85.5455H188.81ZM191.64 95.0692C191.458 95.0692 191.301 95.0046 191.169 94.8754C191.04 94.743 190.975 94.5861 190.975 94.4045C190.975 94.2198 191.04 94.0629 191.169 93.9336C191.301 93.8043 191.458 93.7397 191.64 93.7397C191.824 93.7397 191.981 93.8043 192.111 93.9336C192.24 94.0629 192.305 94.2198 192.305 94.4045C192.305 94.5245 192.274 94.6353 192.212 94.7369C192.154 94.8384 192.074 94.92 191.972 94.9815C191.874 95.04 191.763 95.0692 191.64 95.0692Z" fill="#242424"/>
<defs>
<filter id="filter0_d_344_26" x="139" y="58" width="84" height="64" filterUnits="userSpaceOnUse" color-interpolation-filters="sRGB">
<feFlood flood-opacity="0" result="BackgroundImageFix"/>
<feColorMatrix in="SourceAlpha" type="matrix" values="0 0 0 0 0 0 0 0 0 0 0 0 0 0 0 0 0 0 127 0" result="hardAlpha"/>
<feOffset/>
<feGaussianBlur stdDeviation="10"/>
<feComposite in2="hardAlpha" operator="out"/>
<feColorMatrix type="matrix" values="0 0 0 0 0 0 0 0 0 0 0 0 0 0 0 0 0 0 0.25 0"/>
<feBlend mode="normal" in2="BackgroundImageFix" result="effect1_dropShadow_344_26"/>
<feBlend mode="normal" in="SourceGraphic" in2="effect1_dropShadow_344_26" result="shape"/>
</filter>
</defs>
</svg>
