<svg width="6" height="8" viewBox="0 0 6 8" fill="none" xmlns="http://www.w3.org/2000/svg">
<path d="M6 0H0V0.799491L2.17875 2.54238C1.51753 2.7748 0.969929 3.27758 0.656311 3.94021C0.342693 4.60284 0.288719 5.3711 0.50625 6.07613C0.613872 6.42539 0.785033 6.7486 1.00994 7.02728C1.23485 7.30595 1.5091 7.53463 1.81699 7.70022C2.12488 7.86581 2.46038 7.96506 2.80429 7.99231C3.1482 8.01955 3.49378 7.97425 3.82125 7.859C4.34643 7.67499 4.80371 7.31893 5.12788 6.84159C5.45206 6.36425 5.62659 5.78999 5.62659 5.20069C5.62659 4.61139 5.45206 4.03713 5.12788 3.55979C4.80371 3.08245 4.34643 2.72639 3.82125 2.54238L6 0.799491V0ZM4.1025 6.99555L3 6.30798L1.8975 6.99555L2.19 5.66439L1.21875 4.76896L2.4975 4.65304L3 3.39784L3.5025 4.65304L4.78125 4.76896L3.81 5.66439L4.1025 6.99555Z" fill="#1D86C8"/>
</svg>
