<svg width="8" height="11" viewBox="0 0 8 11" fill="none" xmlns="http://www.w3.org/2000/svg">
<path d="M4 11C2.93913 11 1.92172 10.5849 1.17157 9.84591C0.421427 9.10696 0 8.10473 0 7.0597C0 4.43284 4 0 4 0C4 0 8 4.43284 8 7.0597C8 8.10473 7.57857 9.10696 6.82843 9.84591C6.07828 10.5849 5.06087 11 4 11Z" fill="#14B4D3"/>
<path d="M5.93448 9C5.65187 9 5.38083 8.84904 5.18099 8.58033C4.98115 8.31162 4.92154 7.90674 5.1326 7.56716C5.843 6.4243 5.93448 5 5.93448 5C5.93448 5 7.00008 6.61194 7.00008 7.56716C7.00008 7.94718 6.88781 8.31162 6.68797 8.58033C6.48813 8.84904 6.21709 9 5.93448 9Z" fill="white"/>
</svg>
