<svg width="22" height="22" viewBox="0 0 22 22" fill="none" xmlns="http://www.w3.org/2000/svg">
<path d="M10.5806 0C11.9837 0 13.3293 0.557371 14.3215 1.5495C15.3136 2.54163 15.871 3.88724 15.871 5.29032C15.871 6.6934 15.3136 8.03902 14.3215 9.03115C13.3293 10.0233 11.9837 10.5806 10.5806 10.5806C9.17756 10.5806 7.83195 10.0233 6.83982 9.03115C5.84769 8.03902 5.29032 6.6934 5.29032 5.29032C5.29032 3.88724 5.84769 2.54163 6.83982 1.5495C7.83195 0.557371 9.17756 0 10.5806 0ZM10.5806 21.1613C10.5806 21.1613 21.1613 21.1613 21.1613 18.5161C21.1613 15.3419 16.0032 11.9032 10.5806 11.9032C5.15806 11.9032 0 15.3419 0 18.5161C0 21.1613 10.5806 21.1613 10.5806 21.1613Z" fill="#1D86C8"/>
</svg>
