<svg width="84" height="84" viewBox="0 0 84 84" fill="none" xmlns="http://www.w3.org/2000/svg">
<g filter="url(#filter0_d_302_5)">
<circle cx="42" cy="42" r="22" fill="white"/>
</g>
<path d="M42.7902 34.0001C42.6545 34.0052 42.5251 34.0566 42.4244 34.1451L37.5386 38.0947C37.4588 38.1717 37.3621 38.2301 37.2558 38.2656C37.1495 38.3011 37.0363 38.3127 36.9247 38.2997H33.7766C33.6744 38.299 33.5731 38.3181 33.4786 38.3558C33.3841 38.3935 33.2982 38.4491 33.2259 38.5193C33.1537 38.5896 33.0965 38.6731 33.0577 38.765C33.019 38.8568 32.9993 38.9553 33 39.0546V43.9454C32.9995 44.0446 33.0193 44.143 33.0581 44.2347C33.097 44.3265 33.1542 44.4098 33.2264 44.4799C33.2986 44.55 33.3845 44.6055 33.4789 44.6431C33.5733 44.6807 33.6745 44.6998 33.7766 44.6991H36.9215C37.0331 44.6861 37.1463 44.6977 37.2526 44.7332C37.3589 44.7687 37.4556 44.8271 37.5354 44.9041L42.4212 48.8537C42.7561 49.1243 43.1161 48.9937 43.1161 48.6731V34.3263C43.1186 34.2837 43.112 34.2409 43.0966 34.2009C43.0813 34.1608 43.0575 34.1243 43.0269 34.0936C42.9962 34.063 42.9594 34.0388 42.9186 34.0227C42.8779 34.0066 42.8342 33.9989 42.7902 34.0001ZM49.0716 35.4375L47.9202 36.558C48.8922 38.0364 49.4087 39.7542 49.4087 41.5088C49.4087 43.2633 48.8922 44.9812 47.9202 46.4596L49.0678 47.5694C50.3258 45.7831 50.9993 43.6689 51 41.504C51.0007 39.3392 50.3285 37.2246 49.0716 35.4375ZM46.2861 38.1391L45.1534 39.2496C45.6563 39.9022 45.9281 40.6956 45.9281 41.511C45.9281 42.3263 45.6563 43.1198 45.1534 43.7723L46.2822 44.8697C47.0764 43.9185 47.5104 42.7309 47.5116 41.5058C47.5128 40.2807 47.081 39.0924 46.2887 38.1397L46.2861 38.1391Z" fill="#1D86C8"/>
<defs>
<filter id="filter0_d_302_5" x="0" y="0" width="84" height="84" filterUnits="userSpaceOnUse" color-interpolation-filters="sRGB">
<feFlood flood-opacity="0" result="BackgroundImageFix"/>
<feColorMatrix in="SourceAlpha" type="matrix" values="0 0 0 0 0 0 0 0 0 0 0 0 0 0 0 0 0 0 127 0" result="hardAlpha"/>
<feOffset/>
<feGaussianBlur stdDeviation="10"/>
<feComposite in2="hardAlpha" operator="out"/>
<feColorMatrix type="matrix" values="0 0 0 0 0 0 0 0 0 0 0 0 0 0 0 0 0 0 0.25 0"/>
<feBlend mode="normal" in2="BackgroundImageFix" result="effect1_dropShadow_302_5"/>
<feBlend mode="normal" in="SourceGraphic" in2="effect1_dropShadow_302_5" result="shape"/>
</filter>
</defs>
</svg>
